<svg width="23" height="23" viewBox="0 0 23 23" fill="none" xmlns="http://www.w3.org/2000/svg">
<path d="M5.03002 18.4501L5.03005 4.5L17.1471 4.5L17.1471 19L11.068 12.9663L5.03002 18.4501Z" fill="#01B2FE"/>
<mask id="path-2-inside-1" fill="white">
<path d="M17.6472 4H4.64716V20L11.1472 13.5L17.6472 20V4Z"/>
</mask>
<path d="M4.64716 4V3H3.64716V4H4.64716ZM17.6472 4H18.6472V3H17.6472V4ZM17.6472 20L16.94 20.7071L18.6472 22.4142V20H17.6472ZM11.1472 13.5L11.8543 12.7929L11.1472 12.0858L10.44 12.7929L11.1472 13.5ZM4.64716 20H3.64716V22.4142L5.35426 20.7071L4.64716 20ZM4.64716 5H17.6472V3H4.64716V5ZM16.6472 4V20H18.6472V4H16.6472ZM18.3543 19.2929L11.8543 12.7929L10.44 14.2071L16.94 20.7071L18.3543 19.2929ZM10.44 12.7929L3.94005 19.2929L5.35426 20.7071L11.8543 14.2071L10.44 12.7929ZM5.64716 20V4H3.64716V20H5.64716Z" fill="#01B2FE" mask="url(#path-2-inside-1)"/>
<path d="M5.64709 7L16.6471 7" stroke="white"/>
</svg>
