<svg width="13" height="16" viewBox="0 0 13 16" fill="none" xmlns="http://www.w3.org/2000/svg">
<path d="M0.5 3H12.5" stroke="#6C7D8C"/>
<mask id="path-2-inside-1" fill="white">
<path d="M13 0H0V16L6.5 9.5L13 16V0Z"/>
</mask>
<path d="M0 0V-1H-1V0H0ZM13 0H14V-1H13V0ZM13 16L12.2929 16.7071L14 18.4142V16H13ZM6.5 9.5L7.20711 8.79289L6.5 8.08579L5.79289 8.79289L6.5 9.5ZM0 16H-1V18.4142L0.707107 16.7071L0 16ZM0 1H13V-1H0V1ZM12 0V16H14V0H12ZM13.7071 15.2929L7.20711 8.79289L5.79289 10.2071L12.2929 16.7071L13.7071 15.2929ZM5.79289 8.79289L-0.707107 15.2929L0.707107 16.7071L7.20711 10.2071L5.79289 8.79289ZM1 16V0H-1V16H1Z" fill="#6C7D8C" mask="url(#path-2-inside-1)"/>
</svg>
