<svg width="16" height="16" viewBox="0 0 16 16" fill="none" xmlns="http://www.w3.org/2000/svg">
<path fill-rule="evenodd" clip-rule="evenodd" d="M3.5 0V1.5H2V2.5H3.5V4H4.5V2.5H6V1.5H4.5V0H3.5ZM3.16832 9.79424C3.34992 8.68606 4.85149 4.82132 10 6.35502C6.62627 6.68842 6.73235 8.31334 6.84995 10.1146C6.89628 10.8242 6.9444 11.5613 6.78218 12.2575C6.08911 15.2319 3.11881 16.6727 0 15.6967C3.21321 15.3238 3.16151 13.9622 3.09006 12.0806C3.06354 11.3822 3.0343 10.612 3.16832 9.79424ZM9.16832 9.79424C9.34992 8.68606 10.8515 4.82132 16 6.35502C12.6263 6.68842 12.7324 8.31334 12.8499 10.1146C12.8963 10.8242 12.9444 11.5613 12.7822 12.2575C12.0891 15.2319 9.11881 16.6727 6 15.6967C9.21321 15.3238 9.16151 13.9622 9.09006 12.0806C9.06354 11.3822 9.0343 10.612 9.16832 9.79424Z" fill="white"/>
</svg>
