<svg width="13" height="12" viewBox="0 0 13 12" fill="none" xmlns="http://www.w3.org/2000/svg">
<path d="M3.20113 3.57613C3.00587 3.7714 3.00587 4.08798 3.20113 4.28324C3.3964 4.4785 3.71298 4.4785 3.90824 4.28324L3.20113 3.57613ZM6.48438 1L6.83793 0.646447C6.64267 0.451184 6.32608 0.451184 6.13082 0.646447L6.48438 1ZM9.06051 4.28324C9.25577 4.4785 9.57235 4.4785 9.76762 4.28324C9.96288 4.08798 9.96288 3.7714 9.76762 3.57613L9.06051 4.28324ZM3.90824 4.28324L6.83793 1.35355L6.13082 0.646447L3.20113 3.57613L3.90824 4.28324ZM6.13082 1.35355L9.06051 4.28324L9.76762 3.57613L6.83793 0.646447L6.13082 1.35355ZM5.98438 1L5.98438 9.19141H6.98438L6.98438 1L5.98438 1Z" fill="#01B2FE"/>
<path d="M1 8.88281C1 10.122 1 11.3828 2.73438 11.3828L8.5 11.3828C8.5 11.3828 8.5 11.3828 10.2344 11.3828C11.9687 11.3828 11.9687 10.122 11.9687 8.89844" stroke="#01B2FE"/>
</svg>
