<svg width="13" height="12" viewBox="0 0 13 12" fill="none" xmlns="http://www.w3.org/2000/svg">
<path d="M3.42718 3.38473C3.23192 3.57999 3.23192 3.89657 3.42718 4.09183C3.62244 4.2871 3.93902 4.2871 4.13428 4.09183L3.42718 3.38473ZM6.71042 0.808594L7.06397 0.45504C6.86871 0.259778 6.55213 0.259778 6.35687 0.45504L6.71042 0.808594ZM9.28655 4.09183C9.48181 4.2871 9.7984 4.2871 9.99366 4.09183C10.1889 3.89657 10.1889 3.57999 9.99366 3.38473L9.28655 4.09183ZM4.13428 4.09183L7.06397 1.16215L6.35687 0.45504L3.42718 3.38473L4.13428 4.09183ZM6.35687 1.16215L9.28655 4.09183L9.99366 3.38473L7.06397 0.45504L6.35687 1.16215ZM6.21042 0.808594L6.21042 9H7.21042L7.21042 0.808594L6.21042 0.808594Z" fill="black"/>
<path d="M1.22604 8.69141C1.22604 9.9306 1.22604 11.1914 2.96042 11.1914L8.72604 11.1914C8.72604 11.1914 8.72604 11.1914 10.4604 11.1914C12.1948 11.1914 12.1948 9.9306 12.1948 8.70703" stroke="black"/>
</svg>
