<svg width="16" height="16" viewBox="0 0 16 16" fill="none" xmlns="http://www.w3.org/2000/svg">
<path d="M7.20597 0.38157C6.66417 0.890314 6.66417 2.1113 7.20597 2.62004C7.42268 2.84898 7.96448 3.02704 8.39791 3.02704C8.83135 3.02704 9.37314 2.84898 9.58986 2.62004C10.1317 2.1113 10.1317 0.890314 9.58986 0.38157C9.04806 -0.127174 7.74776 -0.127174 7.20597 0.38157ZM9.07515 1.50081C9.07515 1.95868 8.91262 2.16217 8.45209 2.21305C8.09993 2.26392 7.77485 2.13674 7.69358 1.9078C7.42268 1.24643 7.80194 0.686816 8.45209 0.788565C8.91262 0.839439 9.07515 1.04294 9.07515 1.50081Z" fill="#E61C34"/>
<path d="M2.3298 1.29729C2.08599 1.60254 1.89636 2.03497 1.89636 2.2639C1.89636 2.49284 2.08599 2.92527 2.3298 3.23052C2.95286 4.09538 4.57824 3.91732 5.14712 2.95071C5.49929 2.34021 5.49929 2.18759 5.14712 1.55166C4.57824 0.610484 2.95286 0.432424 2.3298 1.29729ZM4.46988 2.2639C4.46988 2.77265 4.30734 2.92527 3.71137 2.97614C3.22376 3.02702 2.92577 2.92527 2.81741 2.6709C2.51942 1.95866 2.92577 1.44991 3.71137 1.55166C4.30734 1.60254 4.46988 1.75516 4.46988 2.2639Z" fill="#E61C34"/>
<path d="M11.8112 1.29729C11.2694 2.00953 11.2694 2.51827 11.8112 3.23052C12.4343 4.09538 14.0596 3.91732 14.6285 2.95071C14.9807 2.34021 14.9807 2.18759 14.6285 1.55166C14.0596 0.610484 12.4343 0.432424 11.8112 1.29729ZM13.9513 2.2639C13.9513 2.77265 13.7887 2.92527 13.1928 2.97614C12.7052 3.02702 12.4072 2.92527 12.2988 2.6709C12.0008 1.95866 12.4072 1.44991 13.1928 1.55166C13.7887 1.60254 13.9513 1.75516 13.9513 2.2639Z" fill="#E61C34"/>
<path d="M5.90564 4.22258C5.66183 4.47695 5.33676 5.62162 5.17422 6.81717C4.79496 9.48808 4.79496 9.38633 5.25549 9.38633C5.52638 9.38633 5.71601 8.92846 5.82437 7.91097C5.93273 7.12242 6.09527 6.05405 6.20362 5.57075L6.39325 4.68045H8.26244H10.1587L10.24 6.61367C10.2942 8.11447 10.2129 8.62321 9.88782 8.87758C9.56274 9.13196 9.48148 9.79332 9.48148 12.2099C9.48148 16.0254 8.99386 16.2798 8.8855 12.4897C8.83132 10.2766 8.72296 9.76789 8.39789 9.76789C8.07281 9.76789 7.96445 10.2766 7.91027 12.4897C7.88318 14.0159 7.72065 15.2369 7.5852 15.2369C7.44975 15.2369 7.28721 13.8378 7.26012 12.1081C7.17885 9.56439 7.09758 9.00477 6.77251 9.00477C6.44743 9.00477 6.36616 9.56439 6.28489 12.1335L6.20362 15.2369H5.01168C3.79264 15.2369 3.3863 15.5421 4.22608 15.8474C4.76787 16.0509 12.0279 16.0509 12.5697 15.8474C13.4095 15.5421 13.0031 15.2369 11.7841 15.2369H10.5651V12.4897C10.5651 10.4293 10.6734 9.51351 10.9985 8.87758C11.5403 7.8601 11.3236 4.93482 10.6463 4.24801C10.0233 3.58665 6.50161 3.58665 5.90564 4.22258Z" fill="#E61C34"/>
<path d="M1.11078 4.88392C0.7857 5.26548 0.270996 7.52939 0.270996 8.54688C0.270996 9.66611 0.921148 9.03018 1.16496 7.70745C1.5713 5.2146 1.49003 5.31635 2.95287 5.31635C4.41572 5.31635 5.14714 5.13829 5.14714 4.78217C5.14714 4.40061 1.46294 4.50236 1.11078 4.88392Z" fill="#E61C34"/>
<path d="M11.6487 4.80764C11.6487 5.08745 12.4072 5.29095 13.9513 5.36726L15.0349 5.44357L15.1162 7.32592C15.1703 8.82672 15.1162 9.25915 14.764 9.43721C14.168 9.76789 14.1409 15.7456 14.764 15.7456C15.0891 15.7456 15.1703 15.2623 15.1703 12.973C15.1703 10.8363 15.2516 10.1495 15.5767 9.89508C16.1456 9.43721 16.1456 5.90144 15.5496 5.11289C15.1974 4.62958 14.8994 4.55327 13.3824 4.55327C12.4343 4.55327 11.6487 4.65502 11.6487 4.80764Z" fill="#E61C34"/>
<path d="M1.78803 9.5644C1.70676 9.64071 1.62549 11.0906 1.62549 12.744C1.62549 15.2369 1.70676 15.7456 2.03183 15.7456C2.35691 15.7456 2.43818 15.2369 2.43818 12.7186C2.43818 9.94595 2.27564 9.10653 1.78803 9.5644Z" fill="#E61C34"/>
<path d="M0.108462 10.4801C-0.162435 11.1669 0.108462 12.3116 0.541897 12.3116C0.839883 12.3116 0.948242 12.0318 0.948242 11.3196C0.948242 10.3021 0.406449 9.76789 0.108462 10.4801Z" fill="#E61C34"/>
<path d="M4.87622 11.2941C4.87622 12.1335 4.98458 12.4388 5.28257 12.4388C5.58055 12.4388 5.68891 12.1335 5.68891 11.2941C5.68891 10.4547 5.58055 10.1494 5.28257 10.1494C4.98458 10.1494 4.87622 10.4547 4.87622 11.2941Z" fill="#E61C34"/>
</svg>
