<svg width="16" height="16" viewBox="0 0 16 16" fill="none" xmlns="http://www.w3.org/2000/svg">
<path d="M15.991 7.29098C15.9551 6.97148 15.8149 6.68735 15.5954 6.49091L12.6528 3.85391V1.2061C12.6528 0.54108 12.1879 0 11.6167 0C11.0458 0 10.5806 0.54108 10.5806 1.2061V1.99682L8.63191 0.250224C8.45156 0.0891568 8.22701 0 7.99969 0C7.77212 0 7.54732 0.0888646 7.36697 0.250516L0.403491 6.49091C-0.0491361 6.89694 -0.133784 7.65521 0.214855 8.18197C0.412785 8.48072 0.711941 8.65201 1.03647 8.65201C1.20325 8.65201 1.3635 8.60729 1.50869 8.52018V14.7936C1.50869 15.4586 1.97362 16 2.54506 16H7.20043V10.3042H8.79568V15.9991H13.385C13.9562 15.9991 14.4211 15.4583 14.4211 14.7927V8.47429C14.5841 8.59092 14.7695 8.65201 14.9629 8.65201C15.2867 8.65201 15.5863 8.48072 15.7843 8.18255C15.9536 7.92736 16.0272 7.61078 15.991 7.29098ZM15.0255 7.50145C15.0054 7.53215 14.978 7.53712 14.9634 7.53712C14.9461 7.53712 14.9303 7.53098 14.9162 7.51811L13.4634 6.21642V14.7936C13.4634 14.8442 13.4282 14.8848 13.3853 14.8848H9.75394L9.75419 9.18929H6.24243V14.8848H2.54506C2.5021 14.8848 2.46719 14.8436 2.46719 14.7936V6.2784L1.08394 7.51782C1.06987 7.53039 1.05405 7.53682 1.03672 7.53682C1.0219 7.53682 0.99477 7.53185 0.974424 7.50145C0.958098 7.4769 0.956842 7.45147 0.958851 7.43451C0.960609 7.41756 0.967391 7.39329 0.98849 7.37459L7.95272 1.13448C7.98738 1.10379 8.01275 1.1035 8.04792 1.13448L11.5391 4.26316V1.2061C11.5391 1.15582 11.5742 1.11519 11.6172 1.11519C11.6601 1.11519 11.6956 1.15582 11.6956 1.2061V4.40259L15.0124 7.37429C15.0335 7.393 15.0395 7.41727 15.0415 7.43422C15.0435 7.45205 15.042 7.47748 15.0255 7.50145Z" fill="#657686"/>
</svg>
