<svg width="17" height="16" viewBox="0 0 17 16" fill="none" xmlns="http://www.w3.org/2000/svg">
<path d="M8.64709 1L16.1471 7.5L8.64709 9.5L1.64709 7L8.64709 1Z" fill="#E61C34"/>
<path fill-rule="evenodd" clip-rule="evenodd" d="M16.2425 6.49091C16.462 6.68735 16.6022 6.97147 16.6381 7.29099C16.6743 7.61078 16.6007 7.92737 16.4314 8.18256C16.2334 8.48071 15.9338 8.65201 15.61 8.65201C15.4166 8.65201 15.2312 8.59091 15.0682 8.47427V14.7927C15.0682 15.4583 14.6033 15.9991 14.0321 15.9991H9.44278V10.3042H7.84754V16H3.19214C2.62073 16 2.15579 15.4586 2.15579 14.7936V8.52017C2.01059 8.6073 1.85034 8.65201 1.68357 8.65201C1.35904 8.65201 1.05988 8.48071 0.861941 8.18198C0.513308 7.65521 0.597964 6.89694 1.0506 6.49091L8.01407 0.250519C8.1944 0.0888672 8.41922 0 8.64679 0C8.87412 0 9.09867 0.0891418 9.27899 0.250214L11.2277 1.99683V1.20612C11.2277 0.541077 11.6928 0 12.2638 0C12.835 0 13.2999 0.541077 13.2999 1.20612V3.85391L16.2425 6.49091ZM15.6105 7.53711C15.6251 7.53711 15.6525 7.53214 15.6725 7.50146C15.6828 7.4866 15.6873 7.47119 15.6888 7.45737C15.6896 7.44888 15.6894 7.44101 15.6886 7.43423C15.6866 7.41727 15.6806 7.39301 15.6595 7.3743L14.6471 6.46725V6.69724L15.5633 7.51813C15.5774 7.53098 15.5932 7.53711 15.6105 7.53711ZM14.1256 6H9.6471V9.1893H7.6471V6H3.16968L8.59983 1.13449C8.61887 1.11765 8.63507 1.10995 8.65168 1.11157C8.66529 1.11292 8.67917 1.12051 8.69501 1.13449L11.6471 3.78006V5H12.6471V4.67535L14.1256 6ZM2.6471 6.46823L2.59387 6.51593L2.6471 6.57736V6.46823ZM1.75095 7.5H1.62058L1.62152 7.50146C1.6351 7.52173 1.65171 7.5307 1.66565 7.53442C1.67261 7.53629 1.6789 7.53683 1.68381 7.53683C1.70114 7.53683 1.71698 7.5304 1.73105 7.51782L1.75095 7.5Z" fill="#E61C34"/>
</svg>
