<svg width="18" height="18" viewBox="0 0 18 18" fill="none" xmlns="http://www.w3.org/2000/svg">
<path d="M1.82704 1.00008H10.9881C11.5646 0.995639 11.6898 1.16738 11.7197 1.64423V6.34934M1.82704 1.00008C1.2441 1.00893 1.03698 1.12566 1 1.64423L1.19085 13.267L6.5666 16.9638C7.06016 17.072 7.22122 16.9339 7.45726 16.5997V13.547M1.82704 1.00008L7.2664 4.30486L7.45726 13.547M7.45726 13.547H10.9881C11.5621 13.5319 11.6886 13.3336 11.7197 12.7908V8.00172M8.69056 6.34934H13.8827L13.0557 5.28509C13.0598 4.73123 13.2162 4.53506 13.8827 4.4729L17 6.96548L14.3598 9.68212C13.5798 9.83188 13.2759 9.73982 13.0557 9.14999L13.8827 8.00172H8.72962C8.40086 7.94255 8.04093 7.35986 8.06163 7.18953C8.09036 6.87542 8.48351 6.39569 8.69056 6.34934Z" stroke="black"/>
</svg>
