<svg width="16" height="16" viewBox="0 0 16 16" fill="none" xmlns="http://www.w3.org/2000/svg">
<path d="M11.3087 12.1275C11.4188 12.2377 11.5563 12.2928 11.7077 12.2928C11.859 12.2928 11.9966 12.2377 12.1066 12.1275L15.8212 8.40654C15.8487 8.37898 15.8762 8.35142 15.8899 8.32386C15.8899 8.32386 15.9037 8.31007 15.9037 8.29629C15.9175 8.26873 15.9312 8.24117 15.945 8.22739C15.945 8.21361 15.945 8.19982 15.9587 8.19982C15.9725 8.17226 15.9725 8.15848 15.9862 8.13092C16 8.08957 16 8.06201 16 8.02067C16 7.97932 16 7.95176 15.9862 7.91042C15.9862 7.88286 15.9725 7.85529 15.9587 7.84151C15.9587 7.82773 15.9587 7.81395 15.945 7.81395C15.9312 7.78639 15.9175 7.75883 15.9037 7.73126C15.9037 7.73126 15.9037 7.71748 15.8899 7.71748C15.8762 7.68992 15.8487 7.66236 15.8212 7.63479L12.1066 3.91386C11.8865 3.69336 11.5288 3.69336 11.3087 3.91386C11.0886 4.13436 11.0886 4.49268 11.3087 4.71317L14.0602 7.46942H4.2786C3.96217 7.46942 3.71454 7.71748 3.71454 8.03445C3.71454 8.35142 3.96217 8.59948 4.2786 8.59948H14.0602L11.3087 11.3557C11.0886 11.5487 11.0886 11.907 11.3087 12.1275V12.1275Z" fill="#E61C34"/>
<path d="M0.564058 16H7.99312C8.30954 16 8.55718 15.7519 8.55718 15.435V9.88114C8.55718 9.56417 8.30954 9.31611 7.99312 9.31611C7.6767 9.31611 7.42906 9.56417 7.42906 9.88114V14.8699H1.12812V1.13006H7.42906V6.11886C7.42906 6.43583 7.6767 6.68389 7.99312 6.68389C8.30954 6.68389 8.55718 6.43583 8.55718 6.11886V0.56503C8.55718 0.248062 8.30954 0 7.99312 0H0.564058C0.247635 0 0 0.248062 0 0.56503V15.435C0.0137575 15.7519 0.261393 16 0.564058 16V16Z" fill="#E61C34"/>
</svg>
