<svg width="21" height="20" viewBox="0 0 21 20" fill="none" xmlns="http://www.w3.org/2000/svg">
<path d="M10.6471 9L10.4357 9.45309C10.5697 9.51564 10.7245 9.51564 10.8585 9.45309L10.6471 9ZM2.93565 5.95309L10.4357 9.45309L10.8585 8.54691L3.35854 5.04691L2.93565 5.95309ZM10.8585 9.45309L18.3585 5.95309L17.9357 5.04691L10.4357 8.54691L10.8585 9.45309Z" fill="white"/>
<path d="M10.6471 8.5L17.6471 5.5V3H3.64709V5.5L10.6471 8.5Z" fill="#01B2FE"/>
<path d="M17.6471 6.24932L17.6699 13.1775L10.6471 13.0002L10.6471 9.5002L17.6471 6.24932Z" fill="#01B2FE"/>
<path d="M3.62431 6.24933L3.62431 13.0002L10.6471 13.0002L10.6471 9.5002L3.62431 6.24933Z" fill="#01B2FE"/>
<path d="M3.14709 2.5H18.1471V13C18.1471 13.2761 17.9232 13.5 17.6471 13.5H3.64709C3.37095 13.5 3.14709 13.2761 3.14709 13V2.5Z" stroke="#01B2FE"/>
</svg>
