<svg width="15" height="17" viewBox="0 0 15 17" fill="none" xmlns="http://www.w3.org/2000/svg">
<path fill-rule="evenodd" clip-rule="evenodd" d="M3.58878 1.38649C4.43306 0.509413 5.65893 0 7.42812 0L7.42812 1C5.86401 1 4.92325 1.44213 4.30922 2.08C3.67703 2.73675 3.32694 3.66545 3.08299 4.76503C2.96187 5.31097 2.87028 5.88163 2.77897 6.46568L2.75975 6.58878C2.67554 7.12836 2.58962 7.67894 2.48034 8.20734C2.25077 9.31734 1.90209 10.4217 1.15637 11.2268C1.03858 11.4121 1.00459 11.5407 1.00047 11.621C0.996734 11.6936 1.01504 11.7568 1.07188 11.8293C1.21384 12.0106 1.57122 12.2154 2.22202 12.3865C3.01434 12.5948 4.07264 12.7126 5.24478 12.7715H9.61153C10.7837 12.7126 11.842 12.5948 12.6343 12.3865C13.2851 12.2154 13.6424 12.0106 13.7844 11.8293C13.8412 11.7568 13.8595 11.6936 13.8558 11.621C13.8517 11.5407 13.8177 11.4121 13.6999 11.2268C12.9542 10.4217 12.6055 9.31734 12.3759 8.20734C12.2666 7.67894 12.1807 7.12835 12.0965 6.58876L12.0773 6.46568C11.986 5.88163 11.8944 5.31097 11.7733 4.76503C11.5293 3.66545 11.1792 2.73675 10.547 2.08C9.93302 1.44213 8.99225 1 7.42815 1L7.42815 0C9.19734 0 10.4232 0.509413 11.2675 1.38649C12.0936 2.2447 12.4935 3.39437 12.7495 4.54844C12.8784 5.12932 12.9743 5.72931 13.0653 6.31121L13.0837 6.42906L13.0837 6.42909C13.1688 6.97441 13.2511 7.50158 13.3552 8.00481C13.5807 9.0949 13.8919 9.97792 14.4571 10.5723L14.487 10.6038L14.511 10.6398C14.7092 10.9376 14.838 11.2492 14.8545 11.5697C14.8716 11.9024 14.7649 12.1992 14.5717 12.4459C14.2137 12.9031 13.5711 13.1741 12.8886 13.3536C12.2355 13.5253 11.4402 13.6384 10.5748 13.7102C10.4895 14.6209 10.1382 15.352 9.61511 15.875C9.01522 16.4749 8.21857 16.7715 7.42823 16.7715C6.63788 16.7715 5.84124 16.4749 5.24134 15.875C4.71826 15.352 4.36692 14.6209 4.28167 13.7102C3.41622 13.6384 2.62083 13.5253 1.96773 13.3536C1.28521 13.1741 0.642592 12.9031 0.284545 12.4459C0.0913836 12.1992 -0.0153131 11.9024 0.00178332 11.5697C0.0182482 11.2492 0.147107 10.9376 0.345297 10.6398L0.369315 10.6038L0.399185 10.5723C0.964383 9.97792 1.27561 9.0949 1.50106 8.00481C1.60514 7.50157 1.68744 6.97439 1.77256 6.42906L1.79097 6.31121C1.88195 5.72931 1.97785 5.12932 2.10673 4.54844C2.36276 3.39437 2.76266 2.2447 3.58878 1.38649ZM5.29578 13.7753C5.38372 14.3957 5.63302 14.8525 5.94845 15.1679C6.34855 15.568 6.88524 15.7715 7.42823 15.7715C7.97121 15.7715 8.5079 15.568 8.90801 15.1679C9.22344 14.8525 9.47274 14.3957 9.56068 13.7753C8.86402 13.8082 8.14231 13.8208 7.42815 13.8208V13.7715H7.42812V13.8208C6.71402 13.8208 5.99238 13.8082 5.29578 13.7753Z" fill="black"/>
</svg>
