<svg width="16" height="17" viewBox="0 0 16 17" fill="none" xmlns="http://www.w3.org/2000/svg">
<path fill-rule="evenodd" clip-rule="evenodd" d="M4.23587 1.38649C5.08016 0.509413 6.30602 0 8.07521 0L8.07521 1C6.51111 1 5.57034 1.44213 4.95632 2.08C4.32412 2.73675 3.97403 3.66545 3.73008 4.76503C3.60896 5.31097 3.51737 5.88163 3.42606 6.46568L3.40684 6.58878C3.32264 7.12836 3.23672 7.67894 3.12743 8.20734C2.89786 9.31734 2.54919 10.4217 1.80347 11.2268C1.68567 11.4121 1.65168 11.5407 1.64756 11.621C1.64383 11.6936 1.66214 11.7568 1.71898 11.8293C1.86093 12.0106 2.21831 12.2154 2.86911 12.3865C3.66144 12.5948 4.71974 12.7126 5.89187 12.7715H10.2586C11.4308 12.7126 12.4891 12.5948 13.2814 12.3865C13.9322 12.2154 14.2895 12.0106 14.4315 11.8293C14.4883 11.7568 14.5066 11.6936 14.5029 11.621C14.4988 11.5407 14.4648 11.4121 14.347 11.2268C13.6013 10.4217 13.2526 9.31734 13.023 8.20734C12.9137 7.67894 12.8278 7.12835 12.7436 6.58876L12.7244 6.46568C12.6331 5.88163 12.5415 5.31097 12.4204 4.76503C12.1764 3.66545 11.8263 2.73675 11.1941 2.08C10.5801 1.44213 9.63932 1 8.07521 1L8.07521 0C9.8444 0 11.0703 0.509413 11.9146 1.38649C12.7407 2.2447 13.1406 3.39437 13.3966 4.54844C13.5255 5.12932 13.6214 5.72931 13.7124 6.31121L13.7308 6.42906C13.8159 6.97438 13.8982 7.50158 14.0023 8.00481C14.2277 9.0949 14.539 9.97792 15.1042 10.5723L15.134 10.6038L15.1581 10.6398C15.3563 10.9376 15.4851 11.2492 15.5016 11.5697C15.5187 11.9024 15.412 12.1992 15.2188 12.4459C14.8608 12.9031 14.2182 13.1741 13.5357 13.3536C12.8826 13.5253 12.0873 13.6384 11.2219 13.7102C11.1366 14.6209 10.7853 15.352 10.2622 15.875C9.66231 16.4749 8.86567 16.7715 8.07532 16.7715C7.28497 16.7715 6.48833 16.4749 5.88844 15.875C5.36536 15.352 5.01401 14.6209 4.92877 13.7102C4.06332 13.6384 3.26792 13.5253 2.61483 13.3536C1.93231 13.1741 1.28969 12.9031 0.93164 12.4459C0.738478 12.1992 0.631782 11.9024 0.648878 11.5697C0.665343 11.2492 0.794202 10.9376 0.992392 10.6398L1.01641 10.6038L1.04628 10.5723C1.61148 9.97792 1.9227 9.0949 2.14816 8.00481C2.25224 7.50157 2.33453 6.97439 2.41966 6.42906L2.43806 6.31121C2.52904 5.72931 2.62495 5.12932 2.75382 4.54844C3.00986 3.39437 3.40975 2.2447 4.23587 1.38649ZM5.94287 13.7753C6.03081 14.3957 6.28011 14.8525 6.59554 15.1679C6.99564 15.568 7.53234 15.7715 8.07532 15.7715C8.61831 15.7715 9.155 15.568 9.5551 15.1679C9.87053 14.8525 10.1198 14.3957 10.2078 13.7753C9.51112 13.8082 8.78941 13.8208 8.07524 13.8208C7.36115 13.8208 6.63947 13.8082 5.94287 13.7753Z" fill="#01B2FE"/>
<path d="M13.6471 6.5C13.6471 10.0899 11.1847 13 8.14709 13C5.10953 13 2.64709 10.0899 2.64709 6.5C2.64709 2.91015 5.10953 0 8.14709 0C11.1847 0 13.6471 2.91015 13.6471 6.5Z" fill="#01B2FE"/>
<path d="M8.14711 3L14.1471 10L14.6471 11.5L14.6423 12.75L11.6471 13.5L3.64709 13L1.14709 12L2.14709 9L8.14711 3Z" fill="#01B2FE"/>
</svg>
