<svg width="12" height="12" viewBox="0 0 12 12" fill="none" xmlns="http://www.w3.org/2000/svg">
<path d="M8.45312 1L11.3828 3.92969L8.45312 6.85937" stroke="#6C7D8C" stroke-linecap="round" stroke-linejoin="round"/>
<path d="M1 7.34357L1.496 7.40665L1.5 7.37524L1.5 7.34357L1 7.34357ZM3.5 3.87482L3.5 3.37482H3.5L3.5 3.87482ZM10.9375 11.3123C11.2136 11.3123 11.4375 11.0885 11.4375 10.8123C11.4375 10.5362 11.2136 10.3123 10.9375 10.3123L10.9375 11.3123ZM5.96875 10.8123L5.96875 11.3123L5.96875 11.3123L5.96875 10.8123ZM1.5 7.34357L1.5 5.60919L0.5 5.60919L0.5 7.34357L1.5 7.34357ZM5.96875 4.37482L10.9375 4.37482L10.9375 3.37482L5.96875 3.37482L5.96875 4.37482ZM3.5 4.37482L5.96875 4.37482L5.96875 3.37482L3.5 3.37482L3.5 4.37482ZM1.5 5.60919C1.5 5.23354 1.56853 4.99989 1.65187 4.85214C1.73114 4.71159 1.84189 4.61613 1.99469 4.54566C2.34426 4.38445 2.84477 4.37482 3.5 4.37482L3.5 3.37482C2.91603 3.37482 2.16655 3.36518 1.57591 3.63757C1.25861 3.7839 0.976712 4.01363 0.780858 4.36087C0.589069 4.70091 0.5 5.11765 0.5 5.60919L1.5 5.60919ZM1.5 9.07794C1.5 8.21075 1.5 7.77716 1.5 7.56036C1.5 7.45197 1.5 7.39777 1.5 7.37067C1.5 7.35712 1.5 7.35034 1.5 7.34695C1.5 7.34526 1.5 7.34441 1.5 7.34399C1.5 7.34378 1.5 7.34367 1.5 7.34362C1.5 7.34359 1.5 7.34358 1.5 7.34358C1.5 7.34357 1.5 7.34357 1.5 7.34357C1.5 7.34357 1.5 7.34358 1.5 7.34358C1.5 7.34358 1.5 7.34359 1.5 7.34359C1.499 7.37522 1.49599 7.40673 1 7.34357C0.504005 7.2804 0.501003 7.31191 0.5 7.34354C0.5 7.34355 0.5 7.34355 0.5 7.34356C0.5 7.34356 0.5 7.34356 0.5 7.34356C0.5 7.34356 0.5 7.34357 0.5 7.34357C0.5 7.34358 0.5 7.34359 0.5 7.34362C0.5 7.34367 0.5 7.34378 0.5 7.34399C0.5 7.34441 0.5 7.34526 0.5 7.34695C0.5 7.35034 0.5 7.35712 0.5 7.37067C0.5 7.39777 0.5 7.45197 0.5 7.56036C0.5 7.77716 0.5 8.21075 0.5 9.07794L1.5 9.07794ZM5.96875 11.3123L10.9375 11.3123L10.9375 10.3123L5.96875 10.3123L5.96875 11.3123ZM3.48437 11.3123C4.09616 11.3123 4.71725 11.3123 5.1854 11.3123C5.41947 11.3123 5.61531 11.3123 5.75263 11.3123C5.82129 11.3123 5.87532 11.3123 5.91218 11.3123C5.93062 11.3123 5.94476 11.3123 5.95429 11.3123C5.95906 11.3123 5.96267 11.3123 5.9651 11.3123C5.96631 11.3123 5.96722 11.3123 5.96783 11.3123C5.96813 11.3123 5.96837 11.3123 5.96852 11.3123C5.96859 11.3123 5.96865 11.3123 5.96869 11.3123C5.96871 11.3123 5.96873 11.3123 5.96873 11.3123C5.96874 11.3123 5.96875 11.3123 5.96875 10.8123C5.96875 10.3123 5.96874 10.3123 5.96873 10.3123C5.96873 10.3123 5.96871 10.3123 5.96869 10.3123C5.96865 10.3123 5.96859 10.3123 5.96852 10.3123C5.96837 10.3123 5.96813 10.3123 5.96783 10.3123C5.96722 10.3123 5.96631 10.3123 5.9651 10.3123C5.96267 10.3123 5.95906 10.3123 5.95429 10.3123C5.94476 10.3123 5.93062 10.3123 5.91218 10.3123C5.87532 10.3123 5.82129 10.3123 5.75263 10.3123C5.61531 10.3123 5.41947 10.3123 5.1854 10.3123C4.71725 10.3123 4.09616 10.3123 3.48437 10.3123L3.48437 11.3123ZM3.48437 10.3123C2.83719 10.3123 2.3408 10.3027 1.99346 10.1418C1.84162 10.0715 1.73107 9.9761 1.65181 9.83532C1.56852 9.68739 1.5 9.45356 1.5 9.07794L0.5 9.07794C0.5 9.56951 0.58908 9.98607 0.780428 10.3259C0.975806 10.6729 1.25693 10.9028 1.57324 11.0492C2.16219 11.322 2.90799 11.3123 3.48437 11.3123L3.48437 10.3123Z" fill="#6C7D8C"/>
</svg>
