<svg width="13" height="12" viewBox="0 0 13 12" fill="none" xmlns="http://www.w3.org/2000/svg">
<path d="M8.60535 1.09384L11.535 4.02353L8.60535 6.95322" stroke="black" stroke-linecap="round" stroke-linejoin="round"/>
<path d="M1.15222 7.43741L1.64823 7.5005L1.65222 7.46908L1.65222 7.43741L1.15222 7.43741ZM3.65222 3.96866L3.65222 3.46866L3.65222 3.96866ZM11.0897 11.4062C11.3659 11.4062 11.5897 11.1823 11.5897 10.9062C11.5897 10.63 11.3659 10.4062 11.0897 10.4062L11.0897 11.4062ZM6.12097 10.9062L6.12097 11.4062L6.12097 10.9062ZM1.65222 7.43741L1.65222 5.70303L0.652222 5.70303L0.652222 7.43741L1.65222 7.43741ZM6.12097 4.46866L11.0897 4.46866L11.0897 3.46866L6.12097 3.46866L6.12097 4.46866ZM3.65222 4.46866L6.12097 4.46866L6.12097 3.46866L3.65222 3.46866L3.65222 4.46866ZM1.65222 5.70303C1.65222 5.32739 1.72075 5.09373 1.80409 4.94598C1.88336 4.80543 1.99411 4.70997 2.14691 4.6395C2.49648 4.47829 2.99699 4.46866 3.65222 4.46866L3.65222 3.46866C3.06825 3.46866 2.31877 3.45903 1.72813 3.73141C1.41083 3.87774 1.12893 4.10747 0.933081 4.45471C0.74129 4.79475 0.652222 5.21149 0.652222 5.70303L1.65222 5.70303ZM1.65222 9.17178C1.65222 8.3046 1.65222 7.871 1.65222 7.65421C1.65222 7.54581 1.65222 7.49161 1.65222 7.46451C1.65222 7.45096 1.65222 7.44418 1.65222 7.4408C1.65222 7.4391 1.65222 7.43826 1.65222 7.43783C1.65222 7.43762 1.65222 7.43752 1.65222 7.43746C1.65222 7.43744 1.65222 7.43742 1.65222 7.43742C1.65222 7.43741 1.65222 7.43741 1.65222 7.43741C1.65222 7.43741 1.65222 7.43742 1.65222 7.43742C1.65222 7.43742 1.65222 7.43743 1.65222 7.43743C1.65122 7.46906 1.64822 7.50057 1.15222 7.43741C0.656227 7.37425 0.653225 7.40575 0.652222 7.43739C0.652222 7.43739 0.652222 7.43739 0.652222 7.4374C0.652222 7.4374 0.652222 7.4374 0.652222 7.4374C0.652222 7.43741 0.652222 7.43741 0.652222 7.43741C0.652222 7.43742 0.652222 7.43743 0.652222 7.43746C0.652222 7.43751 0.652222 7.43762 0.652222 7.43783C0.652222 7.43825 0.652222 7.4391 0.652222 7.4408C0.652222 7.44418 0.652222 7.45096 0.652222 7.46451C0.652222 7.49161 0.652222 7.54581 0.652222 7.65421C0.652222 7.871 0.652221 8.3046 0.652221 9.17178L1.65222 9.17178ZM6.12097 11.4062L11.0897 11.4062L11.0897 10.4062L6.12097 10.4062L6.12097 11.4062ZM3.6366 11.4062C4.24838 11.4062 4.86948 11.4062 5.33762 11.4062C5.5717 11.4062 5.76753 11.4062 5.90485 11.4062C5.97351 11.4062 6.02754 11.4062 6.06441 11.4062C6.08284 11.4062 6.09698 11.4062 6.10651 11.4062C6.11128 11.4062 6.1149 11.4062 6.11732 11.4062C6.11853 11.4062 6.11944 11.4062 6.12005 11.4062C6.12035 11.4062 6.12059 11.4062 6.12074 11.4062C6.12082 11.4062 6.12088 11.4062 6.12091 11.4062C6.12093 11.4062 6.12095 11.4062 6.12096 11.4062C6.12097 11.4062 6.12097 11.4062 6.12097 10.9062C6.12097 10.4062 6.12097 10.4062 6.12096 10.4062C6.12095 10.4062 6.12093 10.4062 6.12091 10.4062C6.12088 10.4062 6.12082 10.4062 6.12074 10.4062C6.12059 10.4062 6.12035 10.4062 6.12005 10.4062C6.11944 10.4062 6.11853 10.4062 6.11732 10.4062C6.1149 10.4062 6.11128 10.4062 6.10651 10.4062C6.09698 10.4062 6.08284 10.4062 6.06441 10.4062C6.02754 10.4062 5.97351 10.4062 5.90485 10.4062C5.76753 10.4062 5.5717 10.4062 5.33762 10.4062C4.86948 10.4062 4.24838 10.4062 3.6366 10.4062L3.6366 11.4062ZM3.6366 10.4062C2.98941 10.4062 2.49302 10.3965 2.14568 10.2356C1.99384 10.1653 1.88329 10.0699 1.80403 9.92917C1.72074 9.78123 1.65222 9.5474 1.65222 9.17178L0.652221 9.17178C0.652221 9.66336 0.741301 10.0799 0.932649 10.4198C1.12803 10.7668 1.40915 10.9966 1.72546 11.1431C2.31441 11.4158 3.06021 11.4062 3.6366 11.4062L3.6366 10.4062Z" fill="black"/>
</svg>
