<svg width="16" height="22" viewBox="0 0 16 22" fill="none" xmlns="http://www.w3.org/2000/svg">
<path fill-rule="evenodd" clip-rule="evenodd" d="M9.65893 0.0332107C9.85221 0.107381 9.97979 0.292995 9.97979 0.500021C9.97979 1.18542 9.9644 1.82812 9.95045 2.41061C9.94144 2.78685 9.93303 3.13807 9.92976 3.45934C9.92116 4.30327 9.94604 4.99547 10.0666 5.61296C10.2978 6.79696 10.8931 7.77724 12.5268 8.96178C14.7175 10.5502 15.4583 13.5809 14.7788 16.1711C14.0877 18.8053 11.9128 21.0606 8.23274 21.0606C4.85846 21.0606 2.42465 18.9715 1.31994 16.4528C0.223893 13.9538 0.392251 10.9107 2.3798 9.00561C2.52441 8.867 2.73778 8.82807 2.92201 8.90668C3.10625 8.98529 3.22579 9.16627 3.22579 9.36657C3.22579 10.9043 3.61956 11.9075 4.11956 12.5161C4.618 13.1229 5.2451 13.3691 5.79757 13.3691C6.36094 13.3691 6.82654 13.1181 7.05833 12.7481C7.27763 12.3981 7.35307 11.8331 6.91396 11.0525L6.90606 11.0379C5.65804 8.63591 5.54245 6.61531 6.10639 4.81822C6.66082 3.05144 7.85698 1.55572 9.10815 0.165538C9.24664 0.0116573 9.46564 -0.0409593 9.65893 0.0332107ZM8.23182 12.0107C8.23202 12.0154 8.2322 12.0201 8.23236 12.0248C8.23661 12.0206 8.24086 12.0165 8.2451 12.0124L8.23182 12.0107Z" fill="#E61C34"/>
</svg>
