<svg width="216" height="220" viewBox="0 0 216 220" fill="none" xmlns="http://www.w3.org/2000/svg">
<path d="M146 1.1C144.1 1.7 118.8 8.6 89.8001 16.6C60.9001 24.5 34.5001 32.2 31.2001 33.5C17.0001 39.3 7.80011 46.7 3.80011 55.6C0.700107 62.6 -0.199893 84.1 0.200107 143L0.500107 196.5L3.10011 202C6.40011 209 11.0001 213.6 18.0001 216.9L23.5001 219.5H108H192.5L198 216.9C205 213.6 209.6 209 212.9 202L215.5 196.5V135.5V74.5L212.6 68.7C209.1 61.8 203.8 56.7 196.6 53.4L191.5 51H108.2C36.1001 51 24.4001 51.2 21.3001 52.5C19.3001 53.3 17.5001 53.8 17.3001 53.6C16.3001 52.7 27.9001 45.8 35.0001 43.1C46.7001 38.6 148.7 10.8 155.7 10.2C161.8 9.7 162 9.8 163 12.4C163.5 13.9 164 20.7 164 27.6V40H169.7H175.3L174.7 26C174 11 172.9 7.1 168.5 3C166.2 0.799997 164.8 0.499997 157.7 0.299997C153.2 0.199997 147.9 0.499997 146 1.1ZM192.5 62.9C197.7 65.2 203.7 72 204.5 76.2C204.8 78 205 106.1 204.8 138.7L204.5 197.8L201.5 201.6C195 209.5 201.8 209 108 209C14.2001 209 21.0001 209.5 14.5001 201.6L11.5001 197.8L11.2001 138.7C11.0001 100.3 11.3001 78.3 11.9001 76C13.3001 71.4 18.3001 65.4 22.8001 63C26.4001 61.2 29.4001 61.1 107.5 61.1C183.8 61 188.7 61.2 192.5 62.9Z" fill="#E61C34"/>
<path d="M172.4 123.4C168.7 125.1 165.4 129.1 164.5 133.1C163.2 139.1 170.5 148 176.9 148C183.2 148 190 141.2 190 135C190 131.1 186.7 125.8 182.9 123.8C178.9 121.7 176.6 121.6 172.4 123.4Z" fill="#E61C34"/>
</svg>
