<?xml version="1.0" standalone="no"?>
<!DOCTYPE svg PUBLIC "-//W3C//DTD SVG 20010904//EN"
 "http://www.w3.org/TR/2001/REC-SVG-20010904/DTD/svg10.dtd">
<svg version="1.0" xmlns="http://www.w3.org/2000/svg"
 width="256.000000pt" height="256.000000pt" viewBox="0 0 256.000000 256.000000"
 preserveAspectRatio="xMidYMid meet">

<g transform="translate(0.000000,256.000000) scale(0.100000,-0.100000)"
fill="#000000" stroke="none">
<path d="M1660 2389 c-19 -6 -272 -75 -562 -155 -289 -79 -553 -156 -586 -169
-142 -58 -234 -132 -274 -221 -31 -70 -40 -285 -36 -874 l3 -535 26 -55 c33
-70 79 -116 149 -149 l55 -26 845 0 845 0 55 26 c70 33 116 79 149 149 l26 55
0 610 0 610 -29 58 c-35 69 -88 120 -160 153 l-51 24 -833 0 c-721 0 -838 -2
-869 -15 -20 -8 -38 -13 -40 -11 -10 9 106 78 177 105 117 45 1137 323 1207
329 61 5 63 4 73 -22 5 -15 10 -83 10 -152 l0 -124 57 0 56 0 -6 140 c-7 150
-18 189 -62 230 -23 22 -37 25 -108 27 -45 1 -98 -2 -117 -8z m465 -618 c52
-23 112 -91 120 -133 3 -18 5 -299 3 -625 l-3 -591 -30 -38 c-65 -79 3 -74
-935 -74 -938 0 -870 -5 -935 74 l-30 38 -3 591 c-2 384 1 604 7 627 14 46 64
106 109 130 36 18 66 19 847 19 763 1 812 -1 850 -18z"/>
<path d="M1924 1166 c-37 -17 -70 -57 -79 -97 -13 -60 60 -149 124 -149 63 0
131 68 131 130 0 39 -33 92 -71 112 -40 21 -63 22 -105 4z"/>
</g>
</svg>
