<svg width="15" height="25" viewBox="0 0 15 25" fill="none" xmlns="http://www.w3.org/2000/svg">
<path d="M7.49979 1L7.78234 0.58749C7.62601 0.480414 7.42259 0.470903 7.25696 0.562924L7.49979 1ZM3.49979 14.5L3.84884 14.858C3.96311 14.7466 4.01733 14.5873 3.99476 14.4293L3.49979 14.5ZM1 20.5L0.50057 20.4761C0.49045 20.6878 0.614886 20.8829 0.811113 20.9629C1.00734 21.043 1.23272 20.9907 1.37358 20.8323L1 20.5ZM14 20.5L13.5852 20.7791C13.71 20.9647 13.9429 21.0448 14.1555 20.9752C14.368 20.9057 14.5086 20.7034 14.4996 20.4799L14 20.5ZM8.5 17.5C8.22385 17.5 8 17.7239 8 18C8 18.2761 8.22386 18.5 8.5 18.5L8.5 17.5ZM4.48736 15.8883C4.42568 15.6191 4.15747 15.4509 3.88831 15.5126C3.61914 15.5743 3.45095 15.8425 3.51264 16.1117L4.48736 15.8883ZM4.5 18.0667L4.61891 18.5523L4.5 18.0667ZM7.5 14.5C7.5 14.2239 7.27614 14 7 14C6.72386 14 6.5 14.2239 6.5 14.5H7.5ZM6.5 21C6.5 21.2761 6.72386 21.5 7 21.5C7.27614 21.5 7.5 21.2761 7.5 21H6.5ZM7.25696 0.562924C4.89584 1.8747 3.55225 3.60817 2.95316 5.93798C2.36435 8.22787 2.50373 11.0624 3.00481 14.5707L3.99476 14.4293C3.49606 10.9376 3.3855 8.27213 3.92166 6.18702C4.44755 4.14183 5.60386 2.62531 7.74261 1.43708L7.25696 0.562924ZM3.15074 14.142C2.29509 14.9763 1.656 15.7334 1.22167 16.717C0.789438 17.6958 0.577951 18.8575 0.50057 20.4761L1.49943 20.5239C1.57416 18.9606 1.77539 17.9386 2.13644 17.121C2.49538 16.3081 3.03013 15.6562 3.84884 14.858L3.15074 14.142ZM7 17.5H5V18.5H7V17.5ZM7.21723 1.41251C9.22406 2.78709 10.3674 4.16945 10.9255 6.09453C11.4944 8.0568 11.4719 10.6343 11.0037 14.4389L11.9963 14.5611C12.4663 10.7413 12.5157 7.98809 11.886 5.81607C11.2455 3.60687 9.9196 2.05142 7.78234 0.58749L7.21723 1.41251ZM14.4996 20.4799C14.4494 19.2291 14.2751 18.2321 13.8609 17.2465C13.4499 16.2685 12.8149 15.3317 11.8889 14.1858L11.1111 14.8142C12.0157 15.9338 12.582 16.7846 12.939 17.634C13.2928 18.4758 13.4533 19.3461 13.5004 20.5201L14.4996 20.4799ZM11 18.5C11.3036 18.5 11.7316 18.7133 12.2374 19.1719C12.7223 19.6116 13.1968 20.2019 13.5852 20.7791L14.4148 20.2209C13.9984 19.602 13.4729 18.9423 12.9091 18.431C12.366 17.9386 11.6964 17.5 11 17.5V18.5ZM8.5 18.5C9.5483 18.5 9.88202 18.5 10.5 18.5L10.5 17.5C9.88203 17.5 9.5483 17.5 8.5 17.5L8.5 18.5ZM10.5 18.5C10.6463 18.5 10.8086 18.5 11 18.5V17.5C10.8086 17.5 10.6463 17.5 10.5 17.5L10.5 18.5ZM11.0037 14.4389C10.9231 15.0943 10.5334 16.3188 10.0257 17.8419L10.9743 18.1581C11.4666 16.6812 11.9003 15.3407 11.9963 14.5611L11.0037 14.4389ZM5 17.5C4.79889 17.5 4.59053 17.5297 4.38109 17.581L4.61891 18.5523C4.76835 18.5157 4.89552 18.5 5 18.5V17.5ZM4.38109 17.581C3.25106 17.8577 1.81419 18.8324 0.626418 20.1677L1.37358 20.8323C2.4868 19.5809 3.75852 18.763 4.61891 18.5523L4.38109 17.581ZM3.51264 16.1117C3.75686 17.1773 3.86153 17.6375 4.01832 18.2007L4.98168 17.9326C4.83244 17.3964 4.7333 16.9614 4.48736 15.8883L3.51264 16.1117ZM7.5 18V14.5H6.5V18H7.5ZM6.5 18V21H7.5V18H6.5Z" fill="black"/>
<circle cx="7.5" cy="6.46875" r="1.5" stroke="black"/>
<path d="M5.5 20C5.5 19.7239 5.27614 19.5 5 19.5C4.72386 19.5 4.5 19.7239 4.5 20L5.5 20ZM4.5 23C4.5 23.2761 4.72386 23.5 5 23.5C5.27614 23.5 5.5 23.2761 5.5 23L4.5 23ZM4.5 20L4.5 23L5.5 23L5.5 20L4.5 20Z" fill="black"/>
<path d="M7.5 23C7.5 22.7239 7.27614 22.5 7 22.5C6.72386 22.5 6.5 22.7239 6.5 23L7.5 23ZM6.5 24C6.5 24.2761 6.72386 24.5 7 24.5C7.27614 24.5 7.5 24.2761 7.5 24L6.5 24ZM6.5 23L6.5 24L7.5 24L7.5 23L6.5 23Z" fill="black"/>
<path d="M9.5 20C9.5 19.7239 9.27614 19.5 9 19.5C8.72386 19.5 8.5 19.7239 8.5 20L9.5 20ZM8.5 23C8.5 23.2761 8.72386 23.5 9 23.5C9.27614 23.5 9.5 23.2761 9.5 23L8.5 23ZM8.5 20L8.5 23L9.5 23L9.5 20L8.5 20Z" fill="black"/>
</svg>
