<svg width="13" height="12" viewBox="0 0 13 12" fill="none" xmlns="http://www.w3.org/2000/svg">
<path d="M2.96636 3.38473C2.7711 3.57999 2.7711 3.89657 2.96636 4.09183C3.16162 4.2871 3.47821 4.2871 3.67347 4.09183L2.96636 3.38473ZM6.2496 0.808594L6.60316 0.45504C6.40789 0.259778 6.09131 0.259778 5.89605 0.45504L6.2496 0.808594ZM8.82574 4.09183C9.021 4.2871 9.33758 4.2871 9.53284 4.09183C9.72811 3.89657 9.72811 3.57999 9.53284 3.38473L8.82574 4.09183ZM3.67347 4.09183L6.60316 1.16215L5.89605 0.45504L2.96636 3.38473L3.67347 4.09183ZM5.89605 1.16215L8.82574 4.09183L9.53284 3.38473L6.60316 0.45504L5.89605 1.16215ZM5.7496 0.808594L5.7496 9H6.7496L6.7496 0.808594L5.7496 0.808594Z" fill="black"/>
<path d="M0.765228 8.69141C0.765228 9.9306 0.765228 11.1914 2.4996 11.1914L8.26523 11.1914C8.26523 11.1914 8.26523 11.1914 9.9996 11.1914C11.734 11.1914 11.734 9.9306 11.734 8.70703" stroke="black"/>
</svg>
