<svg width="17" height="17" viewBox="0 0 17 17" fill="none" xmlns="http://www.w3.org/2000/svg">
<path d="M6.93359 6.4668C6.93359 6.4668 4.93359 6.4668 4.43359 6.4668C3.93359 6.4668 3.43359 6.4668 3.43359 7.4668C3.43359 8.4668 3.43359 8.9668 3.43359 9.9668C3.43359 10.9668 3.43362 10.9668 4.43359 10.9668C5.43356 10.9668 6.43359 10.9668 6.43359 10.9668V8.8418H4.58987" stroke="black"/>
<path d="M7.68362 6.4668H8.82425M9.96487 6.4668H8.82425M8.82425 6.4668V10.9668M8.82425 10.9668H7.68362M8.82425 10.9668H9.96487" stroke="black"/>
<path d="M14.668 6.4668H11.2617V8.7168M11.2617 11.4707V8.7168M11.2617 8.7168H13.8555" stroke="black"/>
<path d="M1.26953 1.46875H16.2695V15.9688C16.2695 16.2449 16.0457 16.4688 15.7695 16.4688H1.76953C1.49339 16.4688 1.26953 16.2449 1.26953 15.9688V1.46875Z" stroke="black"/>
</svg>
