<svg width="16" height="17" viewBox="0 0 16 17" fill="none" xmlns="http://www.w3.org/2000/svg">
<path fill-rule="evenodd" clip-rule="evenodd" d="M6 1C6 0.44772 6.44772 0 7 0H9C9.5523 0 10 0.44772 10 1V2H11C11.5523 2 12 2.44772 12 3C12.5523 3 13 3.44772 13 4C13.5523 4 14 4.44772 14 5V6H15C15.5523 6 16 6.44772 16 7V16C16 16.5523 15.5523 17 15 17H10V10H6V17H1C0.44772 17 0 16.5523 0 16V7C0 6.44771 0.44772 6 1 6H2V5C2 4.44772 2.44772 4 3 4C3 3.44772 3.44772 3 4 3H5C5 2.44772 5.44772 2 6 2V1Z" fill="#E61C34"/>
</svg>
