<svg width="18" height="19" viewBox="0 0 18 19" fill="none" xmlns="http://www.w3.org/2000/svg">
<path d="M0.292893 8.79289C-0.0976311 9.18342 -0.0976311 9.81658 0.292893 10.2071C0.683417 10.5976 1.31658 10.5976 1.70711 10.2071L0.292893 8.79289ZM9 1.5L9.70711 0.792893L9 0.0857865L8.29289 0.792893L9 1.5ZM16.2929 10.2071C16.6834 10.5976 17.3166 10.5976 17.7071 10.2071C18.0976 9.81658 18.0976 9.18342 17.7071 8.79289L16.2929 10.2071ZM1.70711 10.2071L9.70711 2.20711L8.29289 0.792893L0.292893 8.79289L1.70711 10.2071ZM8.29289 2.20711L16.2929 10.2071L17.7071 8.79289L9.70711 0.792893L8.29289 2.20711Z" fill="#01B2FE"/>
<path fill-rule="evenodd" clip-rule="evenodd" d="M7 3C7 2.44772 7.44772 2 8 2H10C10.5523 2 11 2.44772 11 3V4H12C12.5523 4 13 4.44772 13 5C13.5523 5 14 5.44772 14 6C14.5523 6 15 6.44772 15 7V8H16C16.5523 8 17 8.44772 17 9V18C17 18.5523 16.5523 19 16 19H11V12H7V19H2C1.44772 19 1 18.5523 1 18V9C1 8.44771 1.44772 8 2 8H3V7C3 6.44772 3.44772 6 4 6C4 5.44772 4.44772 5 5 5H6C6 4.44772 6.44772 4 7 4V3Z" fill="#01B2FE"/>
</svg>
