<svg width="15" height="18" viewBox="0 0 15 18" fill="none" xmlns="http://www.w3.org/2000/svg">
<path fill-rule="evenodd" clip-rule="evenodd" d="M3.58878 2.33722C4.43306 1.46014 5.65893 0.950729 7.42812 0.950729L7.42812 1.95073C5.86401 1.95073 4.92325 2.39286 4.30922 3.03073C3.67703 3.68748 3.32694 4.61618 3.08299 5.71576C2.96187 6.2617 2.87028 6.83236 2.77897 7.41641L2.75975 7.53951C2.67554 8.07909 2.58962 8.62967 2.48034 9.15807C2.25077 10.2681 1.90209 11.3725 1.15637 12.1775C1.03858 12.3628 1.00459 12.4915 1.00047 12.5717C0.996734 12.6443 1.01504 12.7075 1.07188 12.7801C1.21384 12.9614 1.57122 13.1661 2.22202 13.3372C3.01434 13.5455 4.07264 13.6633 5.24478 13.7222H9.61153C10.7837 13.6633 11.842 13.5455 12.6343 13.3372C13.2851 13.1661 13.6424 12.9614 13.7844 12.7801C13.8412 12.7075 13.8595 12.6443 13.8558 12.5717C13.8517 12.4915 13.8177 12.3628 13.6999 12.1775C12.9542 11.3725 12.6055 10.2681 12.3759 9.15807C12.2666 8.62967 12.1807 8.07908 12.0965 7.53949L12.0773 7.41641C11.986 6.83236 11.8944 6.2617 11.7733 5.71576C11.5293 4.61618 11.1792 3.68748 10.547 3.03073C9.93302 2.39286 8.99225 1.95073 7.42815 1.95073L7.42815 0.950729C9.19734 0.950729 10.4232 1.46014 11.2675 2.33722C12.0936 3.19543 12.4935 4.3451 12.7495 5.49917C12.8784 6.08005 12.9743 6.68004 13.0653 7.26194L13.0837 7.37979L13.0837 7.37981C13.1688 7.92514 13.2511 8.45231 13.3552 8.95554C13.5807 10.0456 13.8919 10.9287 14.4571 11.5231L14.4869 11.5545L14.511 11.5906C14.7092 11.8883 14.838 12.2 14.8545 12.5204C14.8716 12.8531 14.7649 13.1499 14.5717 13.3966C14.2137 13.8538 13.5711 14.1249 12.8886 14.3043C12.2355 14.476 11.4402 14.5891 10.5748 14.661C10.4895 15.5716 10.1382 16.3027 9.61511 16.8258C9.01521 17.4257 8.21857 17.7222 7.42823 17.7222C6.63788 17.7222 5.84124 17.4257 5.24134 16.8258C4.71826 16.3027 4.36692 15.5716 4.28167 14.661C3.41622 14.5891 2.62083 14.476 1.96773 14.3043C1.28521 14.1249 0.642592 13.8538 0.284545 13.3966C0.0913836 13.1499 -0.0153131 12.8531 0.00178332 12.5204C0.0182482 12.2 0.147107 11.8883 0.345297 11.5906L0.369315 11.5545L0.399185 11.5231C0.964383 10.9287 1.27561 10.0456 1.50106 8.95554C1.60514 8.4523 1.68744 7.92512 1.77256 7.37979L1.79097 7.26194C1.88195 6.68004 1.97785 6.08005 2.10673 5.49917C2.36277 4.3451 2.76266 3.19543 3.58878 2.33722ZM5.29578 14.726C5.38372 15.3464 5.63302 15.8032 5.94845 16.1187C6.34855 16.5188 6.88524 16.7222 7.42823 16.7222C7.97121 16.7222 8.5079 16.5188 8.908 16.1187C9.22344 15.8032 9.47274 15.3464 9.56068 14.726C8.86402 14.7589 8.14231 14.7715 7.42815 14.7715V14.7222H7.42812V14.7715C6.71402 14.7715 5.99238 14.7589 5.29578 14.726Z" fill="black"/>
</svg>
