<svg width="18" height="18" viewBox="0 0 18 18" fill="none" xmlns="http://www.w3.org/2000/svg">
<path d="M17 9C17 4.58172 13.4183 1 9 1C4.58172 1 1 4.58172 1 9C1 13.4183 4.5 17 9 17C13.5 17 17 13.2293 17 9Z" stroke="black"/>
<path d="M9.06499 4.85423C7.8016 4.85423 6.77741 5.87842 6.77741 7.14181V8.21882C6.57544 8.30707 6.43429 8.50861 6.43429 8.74312C6.43429 8.98529 6.58482 9.19231 6.79741 9.27571C6.88331 9.92303 7.2399 10.4849 7.74967 10.8437V11.3167C7.74967 12.0953 7.50409 12.3289 6.79741 12.75C6.57195 12.8844 5.87642 13.1217 5.43506 13.5C5.03473 13.8431 4.43506 14.7373 4.43506 15.5" stroke="black" stroke-width="0.7"/>
<path d="M11.2226 8.21882L11.0824 8.53954L10.8726 8.44784V8.21882H11.2226ZM11.2026 9.27571L10.8556 9.22967L10.8828 9.02521L11.0748 8.94989L11.2026 9.27571ZM11.2026 12.75L11.3818 12.4493H11.3818L11.2026 12.75ZM12.5649 13.5L12.7927 13.2343H12.7927L12.5649 13.5ZM8.75308 11.5038C8.56113 11.481 8.42401 11.3069 8.44682 11.115C8.46962 10.923 8.64372 10.7859 8.83567 10.8087L8.75308 11.5038ZM10.8726 7.14181C10.8726 6.07172 10.0051 5.20423 8.93501 5.20423V4.50423C10.3917 4.50423 11.5726 5.68512 11.5726 7.14181H10.8726ZM10.8726 8.21882V7.14181H11.5726V8.21882H10.8726ZM11.2157 8.74312C11.2157 8.65268 11.1615 8.5741 11.0824 8.53954L11.3627 7.8981C11.6876 8.04005 11.9157 8.36455 11.9157 8.74312H11.2157ZM11.0748 8.94989C11.1579 8.91729 11.2157 8.83653 11.2157 8.74312H11.9157C11.9157 9.13406 11.6725 9.46733 11.3304 9.60154L11.0748 8.94989ZM10.0489 10.5575C10.4814 10.253 10.783 9.77695 10.8556 9.22967L11.5495 9.32175C11.4504 10.0691 11.0388 10.7167 10.4518 11.1299L10.0489 10.5575ZM9.90033 11.3167V10.8437H10.6003V11.3167H9.90033ZM11.0234 13.0507C10.6744 12.8426 10.3748 12.6466 10.1772 12.3716C9.96701 12.0791 9.90033 11.7415 9.90033 11.3167H10.6003C10.6003 11.6704 10.6564 11.839 10.7457 11.9631C10.8476 12.1049 11.0241 12.2362 11.3818 12.4493L11.0234 13.0507ZM12.3372 13.7657C12.1525 13.6074 11.9022 13.4694 11.6514 13.3491C11.5273 13.2895 11.4109 13.2379 11.304 13.1895C11.2047 13.1444 11.0999 13.0962 11.0234 13.0507L11.3818 12.4493C11.418 12.471 11.4847 12.5028 11.593 12.5519C11.6937 12.5976 11.8211 12.6541 11.9542 12.718C12.2178 12.8445 12.5361 13.0143 12.7927 13.2343L12.3372 13.7657ZM13.2149 15.5C13.2149 15.2017 13.0944 14.8478 12.9087 14.512C12.7241 14.1779 12.4987 13.9042 12.3372 13.7657L12.7927 13.2343C13.0315 13.4389 13.3061 13.7839 13.5214 14.1733C13.7357 14.5611 13.9149 15.0356 13.9149 15.5H13.2149ZM10.4324 11.1426C10.0385 11.3826 9.61771 11.4703 9.30621 11.5007C9.14873 11.516 9.01429 11.5172 8.91796 11.5144C8.86967 11.513 8.8306 11.5106 8.80258 11.5084C8.78856 11.5074 8.77728 11.5063 8.76896 11.5055C8.7648 11.5051 8.76138 11.5047 8.75872 11.5044C8.7574 11.5043 8.75626 11.5042 8.75532 11.5041C8.75485 11.504 8.75442 11.504 8.75405 11.5039C8.75386 11.5039 8.75369 11.5039 8.75353 11.5039C8.75345 11.5038 8.75333 11.5038 8.75329 11.5038C8.75318 11.5038 8.75308 11.5038 8.79437 11.1562C8.83567 10.8087 8.83557 10.8087 8.83547 10.8087C8.83544 10.8087 8.83535 10.8087 8.83529 10.8087C8.83518 10.8086 8.83507 10.8086 8.83498 10.8086C8.8348 10.8086 8.83467 10.8086 8.83458 10.8086C8.8344 10.8085 8.8344 10.8085 8.83459 10.8086C8.83496 10.8086 8.83605 10.8087 8.83783 10.8089C8.8414 10.8093 8.84772 10.8098 8.85658 10.8105C8.87432 10.8119 8.9021 10.8137 8.9382 10.8147C9.01067 10.8168 9.11517 10.816 9.23832 10.804C9.48808 10.7797 9.79527 10.7111 10.0682 10.5448L10.4324 11.1426Z" fill="black"/>
</svg>
