<svg width="12" height="12" viewBox="0 0 12 12" fill="none" xmlns="http://www.w3.org/2000/svg">
<path d="M8.14453 1.09384L11.0742 4.02353L8.14453 6.95322" stroke="black" stroke-linecap="round" stroke-linejoin="round"/>
<path d="M0.691406 7.43741L1.18741 7.5005L1.19141 7.46908L1.19141 7.43741L0.691406 7.43741ZM3.19141 3.96866L3.19141 3.46866L3.19141 3.96866ZM10.6289 11.4062C10.905 11.4062 11.1289 11.1823 11.1289 10.9062C11.1289 10.63 10.905 10.4062 10.6289 10.4062L10.6289 11.4062ZM5.66016 10.9062L5.66016 11.4062L5.66016 10.9062ZM1.19141 7.43741L1.19141 5.70303L0.191406 5.70303L0.191406 7.43741L1.19141 7.43741ZM5.66016 4.46866L10.6289 4.46866L10.6289 3.46866L5.66016 3.46866L5.66016 4.46866ZM3.19141 4.46866L5.66016 4.46866L5.66016 3.46866L3.19141 3.46866L3.19141 4.46866ZM1.19141 5.70303C1.19141 5.32739 1.25994 5.09373 1.34327 4.94598C1.42255 4.80543 1.5333 4.70997 1.6861 4.6395C2.03566 4.47829 2.53618 4.46866 3.19141 4.46866L3.19141 3.46866C2.60744 3.46866 1.85795 3.45903 1.26732 3.73141C0.950019 3.87774 0.668118 4.10747 0.472265 4.45471C0.280475 4.79475 0.191406 5.21149 0.191406 5.70303L1.19141 5.70303ZM1.19141 9.17178C1.19141 8.3046 1.19141 7.871 1.19141 7.65421C1.19141 7.54581 1.19141 7.49161 1.19141 7.46451C1.19141 7.45096 1.19141 7.44418 1.19141 7.4408C1.19141 7.4391 1.19141 7.43826 1.19141 7.43783C1.19141 7.43762 1.19141 7.43752 1.19141 7.43746C1.19141 7.43744 1.19141 7.43742 1.19141 7.43742C1.19141 7.43741 1.19141 7.43741 1.19141 7.43741C1.19141 7.43741 1.19141 7.43742 1.19141 7.43742C1.19141 7.43742 1.19141 7.43743 1.19141 7.43743C1.1904 7.46906 1.1874 7.50057 0.691406 7.43741C0.195412 7.37425 0.192409 7.40575 0.191406 7.43739C0.191406 7.43739 0.191406 7.43739 0.191406 7.4374C0.191406 7.4374 0.191406 7.4374 0.191406 7.4374C0.191406 7.43741 0.191406 7.43741 0.191406 7.43741C0.191406 7.43742 0.191406 7.43743 0.191406 7.43746C0.191406 7.43751 0.191406 7.43762 0.191406 7.43783C0.191406 7.43825 0.191406 7.4391 0.191406 7.4408C0.191406 7.44418 0.191406 7.45096 0.191406 7.46451C0.191406 7.49161 0.191406 7.54581 0.191406 7.65421C0.191406 7.871 0.191406 8.3046 0.191406 9.17178L1.19141 9.17178ZM5.66016 11.4062L10.6289 11.4062L10.6289 10.4062L5.66016 10.4062L5.66016 11.4062ZM3.17578 11.4062C3.78757 11.4062 4.40866 11.4062 4.87681 11.4062C5.11088 11.4062 5.30672 11.4062 5.44404 11.4062C5.5127 11.4062 5.56673 11.4062 5.60359 11.4062C5.62202 11.4062 5.63616 11.4062 5.6457 11.4062C5.65046 11.4062 5.65408 11.4062 5.6565 11.4062C5.65771 11.4062 5.65863 11.4062 5.65924 11.4062C5.65954 11.4062 5.65978 11.4062 5.65993 11.4062C5.66 11.4062 5.66006 11.4062 5.6601 11.4062C5.66012 11.4062 5.66013 11.4062 5.66014 11.4062C5.66015 11.4062 5.66016 11.4062 5.66016 10.9062C5.66016 10.4062 5.66015 10.4062 5.66014 10.4062C5.66013 10.4062 5.66012 10.4062 5.6601 10.4062C5.66006 10.4062 5.66 10.4062 5.65993 10.4062C5.65978 10.4062 5.65954 10.4062 5.65924 10.4062C5.65863 10.4062 5.65771 10.4062 5.6565 10.4062C5.65408 10.4062 5.65046 10.4062 5.6457 10.4062C5.63616 10.4062 5.62202 10.4062 5.60359 10.4062C5.56673 10.4062 5.5127 10.4062 5.44404 10.4062C5.30672 10.4062 5.11088 10.4062 4.87681 10.4062C4.40866 10.4062 3.78757 10.4062 3.17578 10.4062L3.17578 11.4062ZM3.17578 10.4062C2.5286 10.4062 2.0322 10.3965 1.68487 10.2356C1.53302 10.1653 1.42247 10.0699 1.34322 9.92917C1.25993 9.78123 1.19141 9.5474 1.19141 9.17178L0.191406 9.17178C0.191406 9.66336 0.280486 10.0799 0.471834 10.4198C0.667212 10.7668 0.948338 10.9966 1.26464 11.1431C1.8536 11.4158 2.59939 11.4062 3.17578 11.4062L3.17578 10.4062Z" fill="black"/>
</svg>
