<svg width="18" height="18" viewBox="0 0 18 18" fill="none" xmlns="http://www.w3.org/2000/svg">
<path d="M15 8.83155C14.7072 8.12283 14.4452 7.75305 13.7355 7.16183C13.9383 6.52025 13.9642 6.10808 13.8347 5.26782C13.1928 4.86276 12.8042 4.73502 12.0496 4.71956C11.7115 3.98375 11.4585 3.60593 10.8843 3C10.1231 3.18406 9.72686 3.32488 9.09917 3.67287C8.33609 3.27888 7.89913 3.16197 7.1157 3C6.49273 3.55739 6.23955 3.91876 5.95041 4.6448C5.09223 4.77064 4.67949 4.89163 4.06612 5.19306C3.96011 5.90205 3.97684 6.30926 4.21488 7.06215C3.68394 7.79648 3.41991 8.17657 3 8.80663C3.34619 9.51952 3.60903 9.88145 4.21488 10.4514C4.02685 11.1686 4.02055 11.5726 4.1405 12.2956C4.75605 12.6702 5.1622 12.8277 6.04959 12.9685C6.2846 13.4856 6.53431 13.8319 7.16529 14.5385C7.94694 14.4036 8.35733 14.2561 9.04959 13.8905C9.67854 14.2312 10.0652 14.3784 10.8347 14.5385C11.4416 13.9814 11.6852 13.6183 11.9256 12.8688C12.7424 12.8572 13.1583 12.7426 13.8347 12.3704C14.0405 11.6695 14.0447 11.2678 13.7355 10.5262C14.3194 9.93669 14.596 9.56687 15 8.83155Z" stroke="#36C1FC" stroke-width="5"/>
<path d="M7.13278 3.5369L8.85062 3.93912L9.14938 4.11508L10.9668 3.46149L12.1369 5.27145L13.1577 5.29658L13.9544 5.84963L13.7552 7.60931L14.7759 8.69026L15 9.41927L14.4274 10.1483L13.7303 11.179L14.0041 11.8828L13.8797 12.8884L12.8838 13.2906L11.9378 13.4163L11.639 14.1956L10.8174 15L9.89627 14.7737L9.04979 14.2961L8.25311 14.8491L7.25726 15L6.58506 14.4469L6.03734 13.4163L4.09544 12.8381L4.19502 10.9276L3 9.26844L4.02075 8.01152V5.64852L6.01245 5.07034L6.38589 4.21564L7.13278 3.5369Z" fill="#36C1FC"/>
<path d="M7.58617 12.2308L12.12 4.84613M8.50928 12.0154L4.92 9.35888" stroke="white" stroke-width="2"/>
</svg>
