<svg width="307" height="307" fill="none" xmlns="http://www.w3.org/2000/svg"><path d="M297 148.5c0 82.014-66.486 148.5-148.5 148.5S0 230.514 0 148.5 66.486 0 148.5 0 297 66.486 297 148.5z" fill="#36C1FD"/><path d="M282.628 212.529l23.874 94.011-93.353-26.33 69.479-67.681z" fill="#36C1FD"/><path fill-rule="evenodd" clip-rule="evenodd" d="M256.625 222.456C266.446 203.029 272 180.935 272 157.5 272 79.904 211.111 17 136 17 60.89 17 0 79.904 0 157.5S60.89 298 136 298c25.039 0 48.498-6.991 68.647-19.186l71.404 20.14-19.426-76.498z" fill="#00B2FF"/><path d="M108.335 100.179c16.451-7.633 25.238-9.91 46.392-2.407-14.246.724-21.46 4.185-29.727 14.802-6.394 8.488-7.141 14.878-4.054 29.842 2.061 14.263 1.968 22.134-1.801 35.809-8.257 18.205-15.125 25.875-31.079 35.351-17.084 6.084-26.343 5.619-42.339-1.837 14.3.352 20.724-2.527 29.728-12.395 6.127-10.233 7.964-16.637 4.954-29.842-3.008-21.461-1.608-32.445 8.107-49.582 4.79-7.894 8.558-11.937 19.819-19.741zM187.483 100.179c16.753-7.633 27.702-11.91 49.244-4.407-14.508.724-23.854 6.185-32.272 16.802-6.512 8.488-7.272 14.878-4.129 29.842 2.099 14.263 2.005 22.134-1.834 35.809-8.408 18.205-15.402 25.875-31.649 35.351-17.398 6.084-26.827 5.619-43.116-1.837 14.562.352 21.104-2.527 30.273-12.395 6.24-10.233 8.111-16.637 5.045-29.842-3.063-21.461-1.638-32.445 8.257-49.582 4.878-7.894 8.715-11.937 20.181-19.741z" fill="#050505"/><path d="M101.607 98.854c16.451-7.633 25.239-11.909 46.393-4.407-14.247.724-21.461 6.186-29.727 16.803-6.394 8.487-7.141 14.877-4.054 29.841 2.06 14.263 1.968 22.135-1.802 35.81-8.256 18.205-15.124 25.874-31.078 35.35-17.085 6.085-26.343 5.62-42.339-1.836 14.3.352 20.724-2.527 29.727-12.396 6.128-10.233 7.965-16.637 4.955-29.841-3.009-21.461-1.609-32.445 8.107-49.583 4.79-7.893 8.558-11.936 19.818-19.74zM181.483 98.854c16.753-7.633 24.202-14.001 45.744-6.5-14.508.725-20.354 8.279-28.772 18.896-6.512 8.487-7.272 14.877-4.129 29.841 2.099 14.263 2.004 22.135-1.834 35.81-8.408 18.205-15.403 25.874-31.649 35.35-17.398 6.085-26.827 5.62-43.116-1.836 14.562.352 21.104-2.527 30.273-12.396 6.24-10.233 8.111-16.637 5.045-29.841-3.063-21.461-1.638-32.445 8.257-49.583 4.878-7.893 8.715-11.936 20.181-19.74z" fill="#fff"/></svg>